<svg width="185" height="78" viewBox="0 0 185 78" fill="none" xmlns="http://www.w3.org/2000/svg">
<g clip-path="url(#clip0_194_60)">
<path d="M54.4437 8.88463C54.4437 5.49305 53.744 4.14574 50.2944 4.14574C46.8447 4.14574 42.1017 5.70701 42.1017 6.51624V28.4312C42.1017 29.4015 41.4551 29.7235 40.8084 29.7235C39.7843 29.7235 37.575 29.5074 37.575 28.8613V4.52281C37.575 2.63954 44.311 0 51.1022 0C57.4608 0 58.9704 2.47643 58.9704 8.99267V28.4312C58.9704 29.4015 58.3237 29.7235 57.6219 29.7235C56.5979 29.7235 54.4416 29.5074 54.4416 28.8613V8.88463H54.4437Z" fill="#3C4E59"/>
<path d="M112.536 27.8931C112.806 28.3232 112.861 28.7003 112.861 28.9163C112.861 29.6175 111.998 29.7235 111.567 29.7235C110.543 29.7235 108.495 29.5625 108.118 28.9163L101.598 17.5002L95.1291 28.9163C94.7517 29.5625 92.7035 29.7235 91.7346 29.7235C91.3042 29.7235 90.4412 29.6154 90.4412 28.9163C90.4412 28.7003 90.4964 28.3232 90.7656 27.8931L98.795 14.6467L91.0879 1.77734C90.8716 1.3473 90.7635 1.02318 90.7635 0.809221C90.7635 0.0550661 91.6795 0.00210571 92.112 0.00210571C93.1361 0.00210571 95.1291 0.110145 95.4535 0.809221L101.598 11.9012L107.848 0.809221C108.173 0.108026 110.113 0.00210571 111.19 0.00210571C111.62 0.00210571 112.483 0.0550661 112.483 0.809221C112.483 1.0253 112.428 1.3473 112.159 1.77734L104.507 14.6467L112.536 27.8931Z" fill="#3C4E59"/>
<path d="M136.571 26.978C136.571 28.0012 131.72 29.7235 125.576 29.7235C118.462 29.7235 115.496 27.461 115.496 21.0549C115.496 14.6488 118.407 12.5474 124.28 12.5474C127.191 12.5474 130.317 13.1935 132.149 13.7866V9.04773C132.149 5.54811 130.531 3.82372 125.357 3.82372C122.824 3.82372 119.968 4.25376 118.136 4.57788C117.275 4.57788 117.059 2.80053 117.004 2.10145C116.949 1.24138 117.165 1.0253 117.489 0.91726C118.405 0.595262 122.34 0.00210571 126.22 0.00210571C133.173 0.00210571 136.567 1.83242 136.567 8.94181V26.9801L136.571 26.978ZM132.153 17.2841C131.775 16.746 127.734 15.9919 125.254 15.9919C121.698 15.9919 119.919 17.3371 119.919 21.1608C119.919 24.9846 121.698 26.2768 125.686 26.2768C128.381 26.2768 131.722 25.6307 132.153 25.0926V17.2841Z" fill="#3C4E59"/>
<path d="M54.7681 49.3675C55.1455 48.0223 56.1166 47.8592 58.3789 47.8592C59.3478 47.8592 59.7804 48.2892 59.7804 48.9354C59.7804 49.1514 59.6722 49.4734 59.5641 49.7976L50.5636 76.2904C50.2944 77.2586 49.8618 77.5827 49.2152 77.5827C48.2441 77.5827 46.3041 77.3136 45.9818 76.3434L36.9813 49.7954C36.8732 49.4713 36.7651 49.1493 36.7651 48.9332C36.7651 48.2871 37.2506 47.8571 38.2196 47.8571C40.4289 47.8571 41.3999 48.0202 41.7773 49.3654L47.4893 68.804C47.8137 69.8801 48.136 71.1194 48.2971 72.3587C48.4582 71.1194 48.7275 69.8822 49.0519 68.804L54.7639 49.3654L54.7681 49.3675Z" fill="#3C4E59"/>
<path d="M104.513 51.899C101.28 51.899 98.2607 53.0832 98.2607 53.5154V76.2925C98.2607 77.2607 97.667 77.5848 96.9674 77.5848C95.9984 77.5848 93.7891 77.3687 93.7891 76.7226V51.63C93.7891 49.7997 98.2077 47.8592 104.297 47.8592C105.268 47.8592 106.723 47.9672 108.071 48.1833C108.934 48.3443 109.256 48.6133 109.256 49.3145C109.256 51.4139 108.771 52.3841 108.179 52.329C106.992 52.113 106.023 51.899 104.513 51.899Z" fill="#3C4E59"/>
<path d="M121.166 73.814C125.423 73.814 127.363 72.6828 127.363 69.9373C127.363 63.313 113.081 64.9294 113.081 55.2906C113.081 49.7446 116.961 47.8592 123.32 47.8592C126.5 47.8592 128.657 48.0223 130.327 48.2892C131.135 48.3973 131.243 48.6663 131.243 49.3654C131.243 50.8186 130.866 52.1659 130.003 52.1109C128.548 51.9499 126.284 51.6808 123.805 51.6808C119.978 51.6808 117.608 52.5409 117.608 55.1275C117.608 61.1035 131.837 59.7032 131.837 69.8271C131.837 75.3732 128.442 77.5805 121.274 77.5805C118.418 77.5805 115.562 77.3115 113.028 76.5573C112.22 76.2883 112.112 76.0722 112.273 75.3181C112.651 72.8946 113.028 72.6256 113.728 72.7866C116.206 73.4878 118.416 73.8098 121.166 73.8098V73.814Z" fill="#3C4E59"/>
<path d="M149.607 78C140.767 78 137.805 74.2843 137.805 64.9146V58.0212C137.805 51.022 141.361 48.2744 148.369 48.2744H149.068C156.775 48.2744 159.309 50.9669 159.309 56.4049V57.6971C159.309 64.5354 157.261 66.0987 142.224 66.0987C142.224 71.9138 144.325 74.1763 150.578 74.1763C153.381 74.1763 156.345 73.6382 158.016 73.3691C158.717 73.3141 158.985 73.5301 159.04 75.5765C159.148 76.5997 158.879 76.8688 158.285 77.0298C155.698 77.6759 152.196 77.9979 149.607 77.9979V78ZM154.888 56.354C154.888 53.0154 153.164 51.7762 148.691 51.7762C144.594 51.7762 142.224 53.0154 142.224 57.5382V62.5991C153.22 62.5991 154.888 61.7369 154.888 57.4302V56.354Z" fill="#3C4E59"/>
<path d="M88.2934 40.9934H164.675V36.5066H87.9054C69.6946 32.3439 69.6925 23.4508 69.6925 17.8243C84.7293 17.8243 86.7775 16.2631 86.7775 9.4227V8.13047C86.7775 2.69039 84.2438 0 76.5367 0H75.837C68.8317 0 65.2739 2.74546 65.2739 9.74682V16.6401C64.9771 27.7322 67.1885 34.1001 81.3581 38.2564C83.0119 38.8475 81.9009 39.0953 80.7093 39.5889C66.9913 43.4042 64.9177 50.7339 65.2739 60.9468V67.8401C65.2739 74.8414 68.8317 77.5869 75.837 77.5869H76.5367C84.2438 77.5869 86.7775 74.8944 86.7775 69.4564V68.1642C86.7775 61.326 84.7293 59.7626 69.6925 59.7626C69.6925 54.0958 69.701 45.1201 88.2913 40.9955L88.2934 40.9934ZM69.6946 9.26171C69.6946 4.73889 72.0651 3.49962 76.1614 3.49962C80.6351 3.49962 82.3589 4.73889 82.3589 8.07751V9.15367C82.3589 13.4604 80.6881 14.3226 69.6946 14.3226V9.26171ZM82.3589 68.4311V69.5073C82.3589 72.8459 80.6351 74.0852 76.1614 74.0852C72.0651 74.0852 69.6946 72.8459 69.6946 68.3231V63.2622C80.6881 63.2622 82.3589 64.1244 82.3589 68.4311Z" fill="#F2AF88"/>
<path d="M63.777 40.9934H21.6435C20.4031 40.9934 19.3981 39.9893 19.3981 38.75C19.3981 37.5107 20.4031 36.5066 21.6435 36.5066H63.777C64.6442 36.5066 64.6442 37.5107 64.6442 38.75C64.6442 39.9893 64.6972 40.9934 63.777 40.9934Z" fill="#F2AF88"/>
<path d="M21.6583 38.7755C21.671 41.1693 21.5205 44.1859 19.2497 45.6667C16.5549 47.3444 13.2579 47.4398 10.8196 47.4525C9.68953 47.4525 8.52339 47.4694 7.30849 47.2597C2.85597 46.7534 -0.383764 43.1818 0.0360453 38.5615C0.0805705 34.0323 2.88142 30.5941 7.45903 30.0921C8.67605 29.8654 9.85915 29.8252 11.0104 29.8421C13.2727 29.9184 15.711 29.8188 18.4504 31.2381C21.2343 32.7676 21.5099 35.9982 21.6562 38.7755H21.6583ZM17.1549 38.7755C17.4539 34.2124 15.0686 33.418 10.9765 33.4688C7.30213 33.4688 4.30834 34.8331 4.4822 38.6928C4.43768 40.0698 4.65394 41.6247 5.86884 42.4657C7.83643 43.7834 11.7949 43.9105 14.3435 43.3703C16.8051 42.775 17.2122 41.1269 17.1549 38.7755Z" fill="#F2AF88"/>
<path d="M184.998 38.9131C185.011 41.3069 184.86 44.3236 182.589 45.8043C179.894 47.4821 176.597 47.5775 174.159 47.5902C173.029 47.5902 171.863 47.6071 170.648 47.3974C166.193 46.889 162.954 43.3173 163.376 38.6971C163.42 34.1679 166.221 30.7297 170.799 30.2276C172.016 30.001 173.199 29.9607 174.35 29.9777C176.612 30.0539 179.051 29.9544 181.79 31.3737C184.574 32.9011 184.849 36.1338 184.996 38.911L184.998 38.9131ZM180.497 38.9131C180.796 34.3501 178.41 33.5557 174.318 33.6065C170.644 33.6065 167.65 34.9708 167.824 38.8305C167.779 40.2075 167.996 41.7624 169.211 42.6034C171.178 43.9211 175.137 44.0482 177.685 43.508C180.147 42.9127 180.554 41.2646 180.497 38.9131Z" fill="#F2AF88"/>
</g>
<defs>
<clipPath id="clip0_194_60">
<rect width="185" height="78" fill="white"/>
</clipPath>
</defs>
</svg>
