<svg width="173" height="190" viewBox="0 0 173 190" fill="none" xmlns="http://www.w3.org/2000/svg">
<g clip-path="url(#clip0_82_214)">
<path d="M1.50558 87.8167L84.5261 1.61637C86.4038 -0.335301 89.5432 -0.240727 91.3012 1.82272L171.683 95.9844C173.227 97.7899 173.145 100.481 171.499 102.192L88.521 188.379C86.6433 190.331 83.5038 190.236 81.7459 188.177L1.32166 94.0242C-0.222413 92.2187 -0.141146 89.5276 1.50558 87.8167Z" fill="#3C4E59" stroke="#3C4E59" stroke-miterlimit="10"/>
<path d="M63.8971 80.7193C63.8971 78.7676 63.4951 77.9938 61.5276 77.9938C59.56 77.9938 56.8483 78.8923 56.8483 79.3565V91.9564C56.8483 92.5153 56.4805 92.7001 56.1083 92.7001C55.5224 92.7001 54.2606 92.5755 54.2606 92.2058V78.213C54.2606 77.1297 58.1101 75.6122 61.9895 75.6122C65.6251 75.6122 66.4848 77.0352 66.4848 80.7794V91.9521C66.4848 92.511 66.117 92.6958 65.7149 92.6958C65.129 92.6958 63.8971 92.5712 63.8971 92.2015V80.7193Z" fill="white"/>
<path d="M97.0968 91.6469C97.2507 91.8962 97.2807 92.1112 97.2807 92.2358C97.2807 92.6399 96.7888 92.7001 96.5407 92.7001C95.9548 92.7001 94.7871 92.6055 94.5689 92.2358L90.8435 85.6715L87.148 92.2358C86.9341 92.6055 85.7622 92.7001 85.2061 92.7001C84.9581 92.7001 84.4662 92.6399 84.4662 92.2358C84.4662 92.1112 84.4961 91.8962 84.6501 91.6469L89.2395 84.0337L84.834 76.6354C84.71 76.386 84.6501 76.2012 84.6501 76.0765C84.6501 75.6423 85.1719 75.6122 85.42 75.6122C86.006 75.6122 87.1437 75.6724 87.3276 76.0765L90.8392 82.4517L94.4107 76.0765C94.5946 75.6724 95.7024 75.6122 96.3183 75.6122C96.5664 75.6122 97.0583 75.6423 97.0583 76.0765C97.0583 76.2012 97.0283 76.386 96.8744 76.6354L92.5031 84.0337L97.0925 91.6469H97.0968Z" fill="white"/>
<path d="M110.831 91.1225C110.831 91.7114 108.059 92.7001 104.548 92.7001C100.484 92.7001 98.7863 91.4019 98.7863 87.7178C98.7863 84.0337 100.45 82.8257 103.808 82.8257C105.472 82.8257 107.255 83.1954 108.303 83.5393V80.8138C108.303 78.802 107.379 77.8133 104.424 77.8133C102.978 77.8133 101.344 78.0626 100.296 78.2474C99.8042 78.2474 99.6802 77.2243 99.6502 76.8245C99.6203 76.3302 99.7443 76.2055 99.9283 76.1453C100.45 75.9605 102.7 75.6208 104.92 75.6208C108.893 75.6208 110.835 76.6741 110.835 80.758V91.1268L110.831 91.1225ZM108.307 85.5469C108.093 85.2373 105.784 84.8032 104.364 84.8032C102.332 84.8032 101.314 85.577 101.314 87.7737C101.314 89.9704 102.332 90.7141 104.608 90.7141C106.147 90.7141 108.055 90.3444 108.303 90.0348V85.5469H108.307Z" fill="white"/>
<path d="M64.0853 103.993C64.2992 103.219 64.8552 103.125 66.1469 103.125C66.703 103.125 66.9468 103.374 66.9468 103.744C66.9468 103.868 66.8869 104.053 66.8227 104.238L61.6815 119.469C61.5276 120.028 61.2795 120.213 60.9116 120.213C60.3556 120.213 59.2478 120.058 59.0639 119.499L53.9184 104.238C53.8585 104.053 53.7944 103.868 53.7944 103.744C53.7944 103.374 54.0724 103.125 54.6242 103.125C55.8859 103.125 56.442 103.219 56.6558 103.993L59.9193 115.166C60.1032 115.785 60.2872 116.498 60.3813 117.208C60.4754 116.494 60.6293 115.785 60.8133 115.166L64.0768 103.993H64.0853Z" fill="white"/>
<path d="M92.5116 105.446C90.6639 105.446 88.9402 106.125 88.9402 106.375V119.469C88.9402 120.028 88.6023 120.213 88.2002 120.213C87.6442 120.213 86.3824 120.088 86.3824 119.718V105.296C86.3824 104.242 88.9059 103.129 92.3876 103.129C92.9436 103.129 93.7734 103.189 94.5433 103.314C95.0352 103.409 95.2191 103.563 95.2191 103.963C95.2191 105.171 94.9411 105.726 94.6032 105.695C93.9274 105.571 93.3713 105.446 92.5073 105.446H92.5116Z" fill="white"/>
<path d="M102.028 118.046C104.462 118.046 105.57 117.397 105.57 115.819C105.57 112.01 97.409 112.939 97.409 107.398C97.409 104.208 99.6246 103.125 103.26 103.125C105.078 103.125 106.31 103.219 107.264 103.374C107.726 103.434 107.786 103.589 107.786 103.993C107.786 104.827 107.572 105.601 107.075 105.571C106.246 105.476 104.95 105.321 103.534 105.321C101.348 105.321 99.9924 105.816 99.9924 107.303C99.9924 110.738 108.123 109.934 108.123 115.755C108.123 118.945 106.182 120.213 102.088 120.213C100.454 120.213 98.8248 120.058 97.3748 119.624C96.9129 119.469 96.853 119.344 96.9428 118.91C97.1567 117.517 97.3748 117.363 97.7726 117.457C99.1883 117.861 100.45 118.046 102.024 118.046H102.028Z" fill="white"/>
<path d="M118.282 120.449C113.23 120.449 111.537 118.313 111.537 112.926V108.963C111.537 104.939 113.568 103.361 117.572 103.361H117.974C122.379 103.361 123.825 104.909 123.825 108.034V108.778C123.825 112.707 122.653 113.605 114.06 113.605C114.06 116.95 115.262 118.248 118.833 118.248C120.433 118.248 122.127 117.939 123.085 117.784C123.487 117.754 123.641 117.878 123.671 119.052C123.731 119.641 123.577 119.796 123.239 119.886C121.759 120.256 119.757 120.445 118.282 120.445V120.449ZM121.297 108.008C121.297 106.091 120.313 105.377 117.756 105.377C115.416 105.377 114.06 106.091 114.06 108.692V111.602C120.343 111.602 121.297 111.108 121.297 108.632V108.013V108.008Z" fill="white"/>
<path d="M83.2429 99.1785H126.892V96.5992H83.0205C72.6141 94.2047 72.6141 89.0934 72.6141 85.8607C81.207 85.8607 82.3789 84.9622 82.3789 81.0331V80.2894C82.3789 77.1641 80.9332 75.6165 76.5277 75.6165H76.1256C72.1222 75.6165 70.0905 77.1942 70.0905 81.2179V85.1815C69.9194 91.5566 71.1855 95.2192 79.2822 97.6094C80.2275 97.949 79.5902 98.0909 78.9101 98.3746C71.07 100.567 69.8852 104.78 70.0905 110.652V114.616C70.0905 118.639 72.1222 120.217 76.1256 120.217H76.5277C80.9332 120.217 82.3789 118.669 82.3789 115.544V114.8C82.3789 110.871 81.207 109.973 72.6141 109.973C72.6141 106.714 72.6183 101.556 83.2429 99.1828V99.1785ZM72.6141 80.9385C72.6141 78.3377 73.9699 77.6241 76.3096 77.6241C78.8673 77.6241 79.8511 78.3377 79.8511 80.255V80.874C79.8511 83.3502 78.8973 83.8445 72.6141 83.8445V80.9342V80.9385ZM79.8511 114.951V115.57C79.8511 117.487 78.8673 118.201 76.3096 118.201C73.9699 118.201 72.6141 117.487 72.6141 114.886V111.976C78.8973 111.976 79.8511 112.47 79.8511 114.947V114.951Z" fill="#95B8BF"/>
<path d="M69.2308 99.1785H45.1544C44.4444 99.1785 43.8713 98.6024 43.8713 97.8888C43.8713 97.1752 44.4444 96.5992 45.1544 96.5992H69.2308C69.7269 96.5992 69.727 97.1752 69.727 97.8888C69.727 98.6024 69.7569 99.1785 69.2308 99.1785Z" fill="#95B8BF"/>
<path d="M45.163 97.9017C45.1715 99.2773 45.086 101.014 43.7857 101.861C42.2459 102.824 40.3597 102.88 38.9696 102.888C38.3237 102.888 37.6565 102.897 36.9636 102.777C34.4186 102.484 32.5666 100.429 32.8061 97.777C32.8318 95.172 34.4315 93.1988 37.0491 92.9108C37.7463 92.7818 38.4221 92.756 39.0765 92.7689C40.3682 92.8119 41.7626 92.756 43.3281 93.5728C44.9192 94.4497 45.0774 96.3111 45.1587 97.906L45.163 97.9017ZM42.5881 97.9017C42.7592 95.2794 41.3948 94.8237 39.0594 94.8495C36.9593 94.8495 35.2484 95.6319 35.3468 97.8501C35.3211 98.6411 35.4452 99.5353 36.1381 100.021C37.263 100.778 39.5256 100.851 40.9799 100.541C42.3871 100.197 42.618 99.2516 42.5881 97.9017Z" fill="#95B8BF"/>
<path d="M138.504 97.9791C138.513 99.3547 138.427 101.091 137.127 101.938C135.587 102.901 133.701 102.957 132.311 102.966C131.665 102.966 130.998 102.974 130.305 102.854C127.76 102.562 125.908 100.507 126.148 97.8544C126.173 95.2494 127.773 93.2762 130.391 92.9882C131.088 92.8592 131.763 92.8334 132.418 92.8463C133.71 92.8893 135.104 92.8334 136.669 93.6502C138.261 94.5271 138.419 96.3885 138.5 97.9834L138.504 97.9791ZM135.934 97.9791C136.105 95.3568 134.74 94.9011 132.405 94.9269C130.305 94.9269 128.594 95.7093 128.692 97.9275C128.667 98.7185 128.791 99.6127 129.484 100.098C130.609 100.855 132.871 100.928 134.326 100.619C135.733 100.275 135.964 99.3289 135.934 97.9791Z" fill="#95B8BF"/>
</g>
<defs>
<clipPath id="clip0_82_214">
<rect width="173" height="190" fill="white"/>
</clipPath>
</defs>
</svg>
