<svg width="173" height="190" viewBox="0 0 173 190" fill="none" xmlns="http://www.w3.org/2000/svg">
<g clip-path="url(#clip0_194_183)">
<path d="M1.50558 87.8167L84.5261 1.6164C86.4038 -0.33527 89.5432 -0.240696 91.3012 1.82275L171.683 95.9845C173.227 97.79 173.145 100.481 171.499 102.192L88.521 188.379C86.6433 190.331 83.5038 190.236 81.7459 188.177L1.32166 94.0242C-0.222413 92.2187 -0.141146 89.5276 1.50558 87.8167Z" fill="white" stroke="white" stroke-miterlimit="10"/>
<path d="M63.8971 80.7193C63.8971 78.7677 63.4951 77.9939 61.5276 77.9939C59.56 77.9939 56.8483 78.8923 56.8483 79.3566V91.9565C56.8483 92.5153 56.4805 92.7002 56.1083 92.7002C55.5224 92.7002 54.2606 92.5755 54.2606 92.2058V78.2131C54.2606 77.1298 58.1101 75.6123 61.9895 75.6123C65.6251 75.6123 66.4848 77.0352 66.4848 80.7795V91.9522C66.4848 92.511 66.117 92.6959 65.7149 92.6959C65.129 92.6959 63.8971 92.5712 63.8971 92.2015V80.7193Z" fill="#3C4E59"/>
<path d="M97.0968 91.647C97.2507 91.8963 97.2807 92.1112 97.2807 92.2359C97.2807 92.64 96.7888 92.7002 96.5407 92.7002C95.9548 92.7002 94.7871 92.6056 94.5689 92.2359L90.8435 85.6716L87.148 92.2359C86.9341 92.6056 85.7622 92.7002 85.2061 92.7002C84.9581 92.7002 84.4662 92.64 84.4662 92.2359C84.4662 92.1112 84.4961 91.8963 84.6501 91.647L89.2395 84.0337L84.834 76.6354C84.71 76.3861 84.6501 76.2012 84.6501 76.0766C84.6501 75.6424 85.1719 75.6123 85.42 75.6123C86.006 75.6123 87.1437 75.6725 87.3276 76.0766L90.8392 82.4518L94.4107 76.0766C94.5946 75.6725 95.7024 75.6123 96.3183 75.6123C96.5664 75.6123 97.0583 75.6424 97.0583 76.0766C97.0583 76.2012 97.0283 76.3861 96.8744 76.6354L92.5031 84.0337L97.0925 91.647H97.0968Z" fill="#3C4E59"/>
<path d="M110.831 91.1225C110.831 91.7114 108.059 92.7001 104.548 92.7001C100.484 92.7001 98.7863 91.4019 98.7863 87.7178C98.7863 84.0337 100.45 82.8257 103.808 82.8257C105.472 82.8257 107.255 83.1954 108.303 83.5393V80.8138C108.303 78.802 107.379 77.8133 104.424 77.8133C102.978 77.8133 101.344 78.0626 100.296 78.2474C99.8042 78.2474 99.6802 77.2243 99.6502 76.8245C99.6203 76.3302 99.7443 76.2055 99.9283 76.1453C100.45 75.9605 102.7 75.6208 104.92 75.6208C108.893 75.6208 110.835 76.6741 110.835 80.758V91.1268L110.831 91.1225ZM108.307 85.5469C108.093 85.2373 105.784 84.8032 104.364 84.8032C102.332 84.8032 101.314 85.577 101.314 87.7737C101.314 89.9704 102.332 90.7141 104.608 90.7141C106.147 90.7141 108.055 90.3444 108.303 90.0348V85.5469H108.307Z" fill="#3C4E59"/>
<path d="M64.0853 103.993C64.2992 103.219 64.8552 103.125 66.1469 103.125C66.703 103.125 66.9468 103.374 66.9468 103.744C66.9468 103.869 66.8869 104.053 66.8227 104.238L61.6815 119.469C61.5276 120.028 61.2795 120.213 60.9116 120.213C60.3556 120.213 59.2478 120.058 59.0639 119.499L53.9184 104.238C53.8585 104.053 53.7944 103.869 53.7944 103.744C53.7944 103.374 54.0724 103.125 54.6242 103.125C55.8859 103.125 56.442 103.219 56.6558 103.993L59.9193 115.166C60.1032 115.785 60.2872 116.499 60.3813 117.208C60.4754 116.494 60.6293 115.785 60.8133 115.166L64.0768 103.993H64.0853Z" fill="#3C4E59"/>
<path d="M92.5116 105.446C90.6639 105.446 88.9402 106.125 88.9402 106.375V119.469C88.9402 120.028 88.6023 120.213 88.2002 120.213C87.6442 120.213 86.3824 120.088 86.3824 119.718V105.296C86.3824 104.243 88.9059 103.129 92.3876 103.129C92.9436 103.129 93.7734 103.189 94.5433 103.314C95.0352 103.409 95.2191 103.563 95.2191 103.963C95.2191 105.171 94.9411 105.726 94.6032 105.696C93.9274 105.571 93.3713 105.446 92.5073 105.446H92.5116Z" fill="#3C4E59"/>
<path d="M102.028 118.046C104.462 118.046 105.57 117.397 105.57 115.819C105.57 112.011 97.409 112.939 97.409 107.398C97.409 104.208 99.6246 103.125 103.26 103.125C105.078 103.125 106.31 103.219 107.264 103.374C107.726 103.434 107.786 103.589 107.786 103.993C107.786 104.827 107.572 105.601 107.075 105.571C106.246 105.476 104.95 105.322 103.534 105.322C101.348 105.322 99.9924 105.816 99.9924 107.303C99.9924 110.738 108.123 109.934 108.123 115.755C108.123 118.945 106.182 120.213 102.088 120.213C100.454 120.213 98.8248 120.058 97.3748 119.624C96.9129 119.469 96.853 119.344 96.9428 118.91C97.1567 117.517 97.3748 117.363 97.7726 117.457C99.1883 117.861 100.45 118.046 102.024 118.046H102.028Z" fill="#3C4E59"/>
<path d="M118.282 120.449C113.23 120.449 111.537 118.313 111.537 112.926V108.963C111.537 104.939 113.568 103.361 117.572 103.361H117.974C122.379 103.361 123.825 104.909 123.825 108.034V108.778C123.825 112.707 122.653 113.605 114.06 113.605C114.06 116.95 115.262 118.248 118.833 118.248C120.433 118.248 122.127 117.939 123.085 117.784C123.487 117.754 123.641 117.879 123.671 119.052C123.731 119.641 123.577 119.796 123.239 119.886C121.759 120.256 119.757 120.445 118.282 120.445V120.449ZM121.297 108.008C121.297 106.091 120.313 105.377 117.756 105.377C115.416 105.377 114.06 106.091 114.06 108.692V111.602C120.343 111.602 121.297 111.108 121.297 108.632V108.013V108.008Z" fill="#3C4E59"/>
<path d="M83.2429 99.1785H126.892V96.5992H83.0205C72.6141 94.2048 72.6141 89.0934 72.6141 85.8607C81.207 85.8607 82.3789 84.9623 82.3789 81.0331V80.2894C82.3789 77.1642 80.9332 75.6166 76.5277 75.6166H76.1256C72.1222 75.6166 70.0905 77.1942 70.0905 81.218V85.1815C69.9194 91.5567 71.1855 95.2193 79.2822 97.6094C80.2275 97.949 79.5902 98.0909 78.9101 98.3746C71.07 100.567 69.8852 104.78 70.0905 110.652V114.616C70.0905 118.639 72.1222 120.217 76.1256 120.217H76.5277C80.9332 120.217 82.3789 118.669 82.3789 115.544V114.8C82.3789 110.871 81.207 109.973 72.6141 109.973C72.6141 106.714 72.6183 101.556 83.2429 99.1828V99.1785ZM72.6141 80.9385C72.6141 78.3377 73.9699 77.6241 76.3096 77.6241C78.8673 77.6241 79.8511 78.3377 79.8511 80.255V80.8741C79.8511 83.3502 78.8973 83.8446 72.6141 83.8446V80.9342V80.9385ZM79.8511 114.951V115.57C79.8511 117.487 78.8673 118.201 76.3096 118.201C73.9699 118.201 72.6141 117.487 72.6141 114.886V111.976C78.8973 111.976 79.8511 112.471 79.8511 114.947V114.951Z" fill="#F2AF88"/>
<path d="M69.2308 99.1785H45.1544C44.4444 99.1785 43.8713 98.6025 43.8713 97.8889C43.8713 97.1753 44.4444 96.5992 45.1544 96.5992H69.2308C69.7269 96.5992 69.727 97.1753 69.727 97.8889C69.727 98.6025 69.7569 99.1785 69.2308 99.1785Z" fill="#F2AF88"/>
<path d="M45.163 97.9018C45.1715 99.2774 45.086 101.014 43.7857 101.861C42.2459 102.824 40.3597 102.88 38.9696 102.888C38.3237 102.888 37.6565 102.897 36.9636 102.777C34.4186 102.484 32.5666 100.429 32.8061 97.7771C32.8318 95.172 34.4315 93.1989 37.0491 92.9108C37.7463 92.7819 38.4221 92.7561 39.0765 92.769C40.3682 92.812 41.7626 92.7561 43.3281 93.5728C44.9192 94.4498 45.0774 96.3112 45.1587 97.9061L45.163 97.9018ZM42.5881 97.9018C42.7592 95.2795 41.3948 94.8238 39.0594 94.8496C36.9593 94.8496 35.2484 95.632 35.3468 97.8502C35.3211 98.6412 35.4452 99.5353 36.1381 100.021C37.263 100.778 39.5256 100.851 40.9799 100.541C42.3871 100.197 42.618 99.2516 42.5881 97.9018Z" fill="#F2AF88"/>
<path d="M138.504 97.9792C138.513 99.3548 138.427 101.092 137.127 101.938C135.587 102.901 133.701 102.957 132.311 102.966C131.665 102.966 130.998 102.974 130.305 102.854C127.76 102.562 125.908 100.507 126.148 97.8545C126.173 95.2494 127.773 93.2762 130.391 92.9882C131.088 92.8593 131.763 92.8335 132.418 92.8464C133.71 92.8893 135.104 92.8335 136.669 93.6502C138.261 94.5272 138.419 96.3886 138.5 97.9835L138.504 97.9792ZM135.934 97.9792C136.105 95.3569 134.74 94.9012 132.405 94.927C130.305 94.927 128.594 95.7094 128.692 97.9276C128.667 98.7186 128.791 99.6127 129.484 100.099C130.609 100.855 132.871 100.928 134.326 100.619C135.733 100.275 135.964 99.329 135.934 97.9792Z" fill="#F2AF88"/>
</g>
<defs>
<clipPath id="clip0_194_183">
<rect width="173" height="190" fill="white"/>
</clipPath>
</defs>
</svg>
