<svg width="245" height="245" viewBox="0 0 245 245" fill="none" xmlns="http://www.w3.org/2000/svg">
<circle cx="122.5" cy="122.5" r="122.5" fill="#3C4E59"/>
<g clip-path="url(#clip0_295_138)">
<path d="M131.154 119.41H64.9348C64.8673 119.41 64.7997 119.432 64.7322 119.432C64.4059 116.573 63.6183 113.803 61.2553 112.272C58.0935 110.347 55.2917 110.482 52.6812 110.381C51.3534 110.359 49.9919 110.415 48.5854 110.719C43.3194 111.406 40.09 116.055 40.045 122.19C39.5612 128.45 43.2969 133.279 48.4279 133.966C49.8231 134.247 51.1734 134.225 52.4786 134.225C55.2917 134.202 59.0837 134.078 62.1892 131.804C64.0346 130.386 64.6647 127.932 64.8673 125.466C64.8898 125.466 64.9235 125.466 64.946 125.466H131.165C132.223 125.466 132.166 124.104 132.166 122.427C132.166 120.749 132.166 119.387 131.165 119.387L131.154 119.41Z" fill="#F2AF88"/>
<path d="M200.298 112.464C197.136 110.539 194.334 110.674 191.724 110.573C190.396 110.55 189.035 110.606 187.628 110.91C183.24 111.473 180.281 114.783 179.38 119.41H135.238C114.253 113.781 114.253 101.735 114.253 94.1251C131.581 94.1251 133.933 92.0087 133.933 82.7549V81.01C133.933 73.6475 131.019 70 122.129 70H121.319C113.251 70 109.144 73.715 109.144 83.194V92.5265C108.807 107.533 111.35 116.156 127.677 121.785C129.578 122.584 128.307 122.922 126.923 123.586C111.114 128.754 108.728 138.672 109.144 152.496V161.829C109.144 171.308 113.24 175.023 121.319 175.023H122.129C131.007 175.023 133.933 171.375 133.933 164.013V162.268C133.933 153.014 131.57 150.897 114.253 150.897C114.253 143.231 114.253 131.084 135.688 125.5H179.2C179.943 130.195 183.217 133.594 187.459 134.169C188.855 134.45 190.205 134.427 191.499 134.427C194.312 134.405 198.104 134.281 201.21 132.007C203.82 130.003 204 125.917 203.989 122.686C203.82 118.926 203.505 114.558 200.298 112.486V112.464Z" fill="#F2AF88"/>
</g>
<defs>
<clipPath id="clip0_295_138">
<rect width="164" height="105" fill="white" transform="translate(40 70)"/>
</clipPath>
</defs>
</svg>
