<svg width="137" height="88" viewBox="0 0 137 88" fill="none" xmlns="http://www.w3.org/2000/svg">
<g clip-path="url(#clip0_82_215)">
<path d="M76.1466 41.4101H20.8296C20.7732 41.4101 20.7168 41.429 20.6604 41.429C20.3879 39.0325 19.7299 36.7115 17.756 35.4283C15.1146 33.8149 12.7741 33.9282 10.5934 33.8432C9.48425 33.8244 8.34689 33.8715 7.17194 34.1263C2.7729 34.7018 0.0751969 38.5985 0.0375983 43.7405C-0.366587 48.9864 2.7541 53.034 7.04034 53.6095C8.2059 53.8454 9.33386 53.8265 10.4242 53.8265C12.7741 53.8076 15.9418 53.7039 18.5361 51.798C20.0777 50.6092 20.604 48.5524 20.7732 46.4861C20.792 46.4861 20.8202 46.4861 20.839 46.4861H76.156C77.0396 46.4861 76.9926 45.3445 76.9926 43.9387C76.9926 42.5329 76.9926 41.3912 76.156 41.3912L76.1466 41.4101Z" fill="#3C4E59"/>
<path d="M133.908 35.5887C131.266 33.9753 128.926 34.0886 126.745 34.0036C125.636 33.9848 124.498 34.032 123.323 34.2867C119.658 34.7584 117.186 37.5323 116.434 41.4101H79.5587C62.0283 36.6926 62.0283 26.5972 62.0283 20.2192C76.5038 20.2192 78.4683 18.4454 78.4683 10.6898V9.2274C78.4683 3.05693 76.0338 0 68.6081 0H67.9313C61.1918 0 57.7609 3.11354 57.7609 11.0578V18.8794C57.4789 31.4562 59.6032 38.6834 73.2421 43.4009C74.8307 44.0708 73.7685 44.3538 72.6123 44.9105C59.4058 49.2411 57.4131 57.5533 57.7609 69.1395V76.9611C57.7609 84.9053 61.1824 88.0189 67.9313 88.0189H68.6081C76.0244 88.0189 78.4683 84.9619 78.4683 78.7915V77.329C78.4683 69.5735 76.4944 67.7997 62.0283 67.7997C62.0283 61.3745 62.0283 51.1942 79.9347 46.5144H116.283C116.904 50.4488 119.639 53.2982 123.183 53.7794C124.348 54.0152 125.476 53.9964 126.557 53.9964C128.907 53.9775 132.075 53.8737 134.669 51.9678C136.85 50.2884 137 46.8635 136.991 44.1557C136.85 41.0044 136.586 37.3436 133.908 35.6076V35.5887Z" fill="#3C4E59"/>
</g>
<defs>
<clipPath id="clip0_82_215">
<rect width="137" height="88" fill="white"/>
</clipPath>
</defs>
</svg>
